<svg xmlns="http://www.w3.org/2000/svg" version="1.1" xmlns:xlink="http://www.w3.org/1999/xlink" xmlns:svgjs="http://svgjs.dev/svgjs" width="100%" height="100%" viewBox="0 0 1000 600"><rect width="1000" height="600" x="0" y="0" fill="#295F2"/><g><circle r="166.66666666666666" cx="279.026865641276" cy="301.24910188164745" fill="#ffe67c" transform="matrix(1.1124933456823025,0,0,1.1124933456823025,0,-35.137612335483425)"/><path d="M254.65707657406782 376.24907108665934L254.65707657406782 376.24907108665934Q244.74747999090116 376.24907108665934 236.76764695287747 373.71951616937724Q228.78781391485379 371.18996125209526 223.10283482240553 366.7567206754154Q217.4178557299573 362.2974022129904 214.34066521202658 356.24733272010974Q211.28955257984106 350.1972632272291 211.28955257984106 343.13015619028647L211.28955257984106 343.13015619028647Q211.28955257984106 342.32174173218607 211.28955257984106 341.4090157311049Q211.28955257984106 340.47021184427865 211.4720977800573 339.66179738617814L211.4720977800573 339.66179738617814L215.0447681271463 340.0268877866106Q214.8622229269301 340.86138013045615 214.8622229269301 341.53940515983084Q214.8622229269301 342.2174301892054 214.8622229269301 342.9476109900703L214.8622229269301 342.9476109900703Q214.8622229269301 349.2845372261479 217.70471247315422 354.68265957539916Q220.54720201937835 360.1068598103957 225.63238973968754 364.0967763294076Q230.71757745999676 368.0866928484194 237.81076238268446 370.38154679399486Q244.93002519111738 372.65032285382506 253.53572748702527 372.65032285382506L253.53572748702527 372.65032285382506Q261.43732686781345 372.65032285382506 267.3309290462231 370.38154679399486Q273.2506091103779 368.0866928484194 277.4752266010963 364.1489321008979Q281.6998440918147 360.1850934676312 284.4901778665485 354.78697111837994Q287.28051164128226 349.3888487691286 288.9755742147187 343.23446773326714Q290.6706367881551 337.0800866974058 291.5051291320007 330.4041479466408Q292.3135435901011 323.70213131013077 292.60040033329807 317.1044262166014Q292.887257076495 310.506721123072 292.887257076495 304.27410642997506Q292.887257076495 298.04149173687813 292.9654907337305 292.7216030448624L292.9654907337305 292.7216030448624Q293.14803593394674 279.6044265150391 296.30346010911296 269.5122847316562Q299.4849621700244 259.4462208340185 304.0485921754301 251.7271666534466L304.0485921754301 251.7271666534466Q297.6334322821169 249.64093579383254 291.14003873156827 246.27688853270493Q284.6205672952744 242.93891915732246 278.1271737447257 239.73133921066588Q271.60770230843184 236.5237592640093 264.9578414434121 234.1767495469435Q258.3079805783924 231.82973982987772 251.63204182762746 231.82973982987772L251.63204182762746 231.82973982987772Q240.70540770039895 231.82973982987772 233.09066506280772 234.77654091908255Q225.50200031096168 237.69726412254218 220.72974721959457 242.33912778518342Q215.95749412822747 246.98099144782466 213.7930296113779 252.6659705402729Q211.65464298027354 258.324871746976 211.65464298027354 263.9316171821887L211.65464298027354 263.9316171821887Q211.65464298027354 270.4510886184826 213.7930296113779 275.9274446249693Q215.95749412822747 281.42987851720136 219.8430991042586 285.4719508077036Q223.75478196603493 289.5140230982058 229.0746706580507 291.75672127229086Q234.3945593500665 293.999419446376 240.70540770039895 293.999419446376L240.70540770039895 293.999419446376Q246.75547719327966 293.999419446376 251.65811971337263 291.75672127229086Q256.56076223346565 289.5140230982058 260.00304315182876 286.7497672092172Q263.44532407019193 284.0115892059738 265.27077607235424 281.7167352603983Q267.12230596026166 279.42188131482294 267.2005396174972 279.3436476575873L267.2005396174972 279.3436476575873L270.0430291637213 281.42987851720136Q270.0430291637213 281.53419006018214 269.02599161965946 282.8641622331861Q268.03503196134284 284.19413440618996 266.0531126447095 286.123897951333Q264.09727121382133 288.0536614964759 261.1504701246165 290.29635967056106Q258.22974692115685 292.5390578446461 254.31806405938053 294.4166656182988Q250.43245908334939 296.2942733919514 245.71236176347264 297.572089793465Q240.9922644435959 298.84990619497864 235.30728535114764 298.84990619497864L235.30728535114764 298.84990619497864Q229.5179947157187 298.84990619497864 223.52008099432834 296.89406476409044Q217.522167272938 294.9121454474571 212.619524752845 290.9222289284453Q207.71688223275203 286.9323124094334 204.58753594333098 280.88224291655274Q201.45818965390993 274.832173423672 201.45818965390993 266.7741067284128L201.45818965390993 266.7741067284128Q201.45818965390993 258.8985852333699 204.58753594333098 251.88363396791763Q207.71688223275203 244.86868270246546 213.662640182652 239.62702766768518Q219.63447601829722 234.4114505186501 228.42272351442134 231.3342600007194Q237.23704889629062 228.2570694827887 248.58092919544194 228.2570694827887L248.58092919544194 228.2570694827887Q254.3702198308709 228.2570694827887 259.74226429437704 229.4044964555764Q265.08823087213796 230.55192342836412 270.0430291637213 232.4034533162716Q274.9978274553047 234.22890531843387 279.63969111794586 236.5237592640093Q284.25547689484193 238.81861320958475 288.71479535726695 241.11346715516018Q293.14803593394674 243.38224321499044 297.42480919615554 245.41631830311414Q301.6755045726191 247.42431550549261 305.90012206333756 248.70213190700622L305.90012206333756 248.70213190700622Q309.29024721021034 243.6690999581874 312.6803723570832 239.9138844108821Q316.07049750395595 236.15866886357682 318.8608312786897 233.68126971778517Q321.6511650534235 231.20387057199352 323.39838339835023 229.92605417047992Q325.145601743277 228.62215988322114 325.2499132862577 228.43961468300492L325.2499132862577 228.43961468300492L327.3361441458718 231.46464942944527Q326.71027488798757 231.82973982987772 325.01521231455115 233.1336341171365Q323.32014974111473 234.4114505186501 321.07745156702964 236.7584602357159Q318.8086755071994 239.0793920670365 316.30519847566256 242.39128355667376Q313.7756435583805 245.6770971605659 311.40255595556954 250.08425985150055L311.40255595556954 250.08425985150055Q312.7586060143187 250.26680505171677 314.0625003015775 250.37111659469747Q315.34031670309105 250.449350251933 316.80067830482085 250.449350251933L316.80067830482085 250.449350251933Q323.50269494133096 250.449350251933 328.77042786185643 248.75428767849658Q334.03816078238185 247.05922510506016 338.0280773013937 244.45143653054262Q342.01799382040554 241.84364795602508 344.86048336662964 238.7664574380944Q347.70297291285374 235.68926692016367 349.4762691435257 232.97716680266544Q351.27564325994285 230.29114457091237 352.1362134895336 228.41353679725975Q353.02286160486955 226.5359290236071 353.2054068050858 226.2490722804102L353.2054068050858 226.2490722804102L356.5955319519586 227.34434348170757Q356.4912204089779 227.44865502468824 355.57849440789676 229.45665222706674Q354.6657684068156 231.46464942944527 352.6838490901823 234.46360629014043Q350.7280076592941 237.43648526509045 347.59866136987307 240.82661041196323Q344.4953929661972 244.21673555883606 340.0882302752625 247.1635366480409Q335.6810675843279 250.08425985150055 329.8656990631538 252.06617916813386Q324.05033054197963 254.02202059902203 316.6181331046046 254.02202059902203L316.6181331046046 254.02202059902203Q314.87091475967793 254.02202059902203 313.1236964147511 253.83947539880577Q311.40255595556954 253.65693019858955 309.65533761064285 253.21360614092157L309.65533761064285 253.21360614092157Q306.8128480644187 259.15936409082155 304.93524029076605 266.8262624999031Q303.05763251711346 274.4670830232395 303.05763251711346 283.8290440057575L303.05763251711346 283.8290440057575Q303.05763251711346 291.52202030058424 303.73565754648797 299.81478796755005Q304.43976046160776 308.10755563451585 304.43976046160776 316.3742454157365L304.43976046160776 316.3742454157365Q304.43976046160776 329.1263315451273 301.62334880112877 340.0790435581009Q298.833015026395 351.03175557107465 292.7829455335143 359.0376664948435Q286.73287604063364 367.0696553043575 277.2926814008801 371.6593631955084Q267.85248676112656 376.24907108665934 254.65707657406782 376.24907108665934Z " fill="#295f2d" transform="matrix(1.1124933456823025,0,0,1.1124933456823025,0,-35.137612335483425)"/><path d="M561.2976523566972 368.1573938855613L561.2976523566972 368.1573938855613Q567.5982923230303 368.1573938855613 573.3872051854987 363.5198670067882Q579.1761180479671 358.9143230720067 582.4383783351041 350.15099641832524L582.4383783351041 350.15099641832524L581.542855903341 350.15099641832524Q574.5705741131856 350.15099641832524 568.6857124187425 347.7842585629513Q562.7688677803079 345.4175207075775 558.4511703414503 341.227755044686Q554.101489958601 337.00600643780297 551.6388032712525 331.0891617993683Q549.1761165839041 325.2043001049252 549.1761165839041 318.1040865388037L549.1761165839041 318.1040865388037Q549.1761165839041 314.17018442784456 550.2315537356249 310.1403334849107Q551.2869908873456 306.07849959798534 553.5577799107449 302.8802051988315Q555.7965859901526 299.68191079967767 559.4106586611964 297.6350023842192Q562.9927483882486 295.6200769127523 567.9501047069372 295.6200769127523L567.9501047069372 295.6200769127523Q571.979955649871 295.6200769127523 575.9138577608302 297.2512070563207Q579.8477598717894 298.8823371998892 583.0140713269517 302.81623931084846Q586.1483998381225 306.7501414218076 588.1313423655979 313.43457671603915Q590.0823019490817 320.1190120102707 590.0823019490817 330.3535540875629L590.0823019490817 330.3535540875629Q590.0823019490817 334.1915073665475 589.7624725091663 337.9654947575491Q589.4106601252594 341.7074992045591 588.5151376934963 345.3215718756029L588.5151376934963 345.3215718756029Q592.8968010203371 344.52199827581444 596.3189760274317 342.50707280434756Q599.7731339785178 340.49214733288056 602.395735385824 337.6136823736422Q605.0503197371216 334.7352174144037 607.0652452085885 331.0891617993683Q609.1121536240471 327.4431061843329 610.775266711607 323.28532346543295L610.775266711607 323.28532346543295L615.1569300384477 324.40472650513675Q612.8221751270655 330.8013153034444 609.7198295598862 335.3109104062514Q606.6174839927071 339.8205055090583 603.0673772096463 342.8588851882545Q599.549253370577 345.86528192345907 595.6473342036094 347.49641206702745Q591.7773979806332 349.12754221059595 587.6196152617333 349.7032352024437L587.6196152617333 349.7032352024437Q586.0524510061479 355.2043015689883 583.4618325428332 360.0337261117105Q580.8712140795186 364.8951335984243 577.1611925765002 368.47722332547664Q573.4511710734818 372.09129599652044 568.5577806427764 374.1701873559705Q563.664390212071 376.2490787154205 557.5876308536788 376.2490787154205L557.5876308536788 376.2490787154205Q552.5343257030156 376.2490787154205 547.4170546643695 374.1701873559705Q542.2997836257234 372.09129599652044 538.2059667948065 367.74161561367123Q534.1121499638896 363.4239181748136 531.5535144445664 356.83543171255667Q529.026861869235 350.2789281942913 529.026861869235 341.16378915670293L529.026861869235 341.16378915670293Q529.026861869235 335.2149615742768 530.4341114048626 329.4580316557999Q531.8413609404904 323.7330846813145 534.3680135158219 318.6158136426684Q536.8946660911533 313.4985426040222 540.380806986231 309.05291338919835Q543.8669478813088 304.6072841743745 547.9287817682341 301.34502388723763L547.9287817682341 301.34502388723763L549.6238777997856 304.15952295849297Q547.033259336471 306.5262608138669 544.6665214810972 310.0124017089445Q542.2997836257234 313.4985426040222 540.380806986231 317.7202912109053Q538.4938132907303 321.9420398177883 537.3744102510265 326.611549640553Q536.2230242673311 331.24907651932597 536.2230242673311 335.88660339809906L536.2230242673311 335.88660339809906Q536.2230242673311 344.969759491696 538.5257962347218 351.1744506260544Q540.8605511461042 357.34715881642126 544.4426408731565 361.12114620742284Q548.0567135442003 364.8951335984243 552.5343257030156 366.5262637419928Q557.0439208058226 368.1573938855613 561.2976523566972 368.1573938855613ZM567.7262240989965 300.001740239593L567.7262240989965 300.001740239593Q564.6878444198003 300.001740239593 562.0972259564855 301.31304094324605Q559.506607493171 302.59235870290763 557.5876308536788 304.83116478231534Q555.7006371581779 307.1019538057145 554.5492511744826 310.2362823168853Q553.4298481347787 313.3706108280561 553.4298481347787 317.2085641070406L553.4298481347787 317.2085641070406Q553.4298481347787 323.8290335132891 555.7006371581779 329.13820221588446Q557.9394432375857 334.41538797448834 561.8093794605618 338.12540947750676Q565.6793156835379 341.8354309805252 570.8605526101671 343.786390564009Q576.0417895367964 345.76933309148444 581.9906171192224 345.76933309148444L581.9906171192224 345.76933309148444L584.1334743666555 345.76933309148444Q585.0289967984186 342.28319219640673 585.3808091823255 338.4452389174221Q585.700638622241 334.63926858242905 585.700638622241 330.12967347962217L585.700638622241 330.12967347962217Q585.4767580143002 321.4942786019068 583.9735596466978 315.7053657394383Q582.4383783351041 309.8844699329784 580.0716404797301 306.43031198189226Q577.7368855683478 302.94417108681455 574.5066082252025 301.47295566320383Q571.3083138260487 300.001740239593 567.7262240989965 300.001740239593ZM644.1654602387731 298.5305248159823L644.1654602387731 298.5305248159823Q649.1228165574615 298.5305248159823 652.6729233405223 299.84182551963534Q656.223030123583 301.1211432792969 658.4618362029908 302.4644269269414L658.4618362029908 302.4644269269414Q659.2294268587876 287.7522726908338 661.0524546663054 276.3343616858547Q662.8434995298314 264.9164506808754 665.2742032731884 256.4409705231178Q667.6729240725538 247.93350742136857 670.4874231438091 242.1445945589001Q673.3019222150645 236.3556816964317 676.2123701182945 232.83755785736247Q679.1548009655161 229.2874510743017 681.9053341487884 227.75226976270787Q684.6558673320607 226.24907139510557 687.0226051874345 226.24907139510557L687.0226051874345 226.24907139510557Q692.0759103380975 226.24907139510557 694.7304946893953 230.50280294598016Q697.3530960967014 234.7885174408463 697.3530960967014 243.1040828786463L697.3530960967014 243.1040828786463Q697.3530960967014 247.48574620548703 696.3936077769553 254.2981132756847Q695.4661024012006 261.11048034588237 693.6110916496914 269.49001167166546Q691.7560808981822 277.86954299744843 689.1014965468845 287.4004603069269Q686.4469121955867 296.96336056039684 683.0247371884922 306.654192589833Q679.6025621813976 316.31304167527765 675.5407282944723 325.7480101527814Q671.5108773515384 335.2149615742768 666.7774016407907 343.53052701207673L666.7774016407907 343.53052701207673Q667.2251628566722 349.9271158103844 668.1846511764184 353.86101792134366Q669.1441394961646 357.7949200323028 670.6153549197753 360.00174316771904Q672.0545873993944 362.1765833591436 673.9735640388868 362.97615695893205Q675.8925406783792 363.74374761472893 678.259278533753 363.74374761472893L678.259278533753 363.74374761472893Q681.5215388208899 363.74374761472893 684.559918500086 361.5689074233044Q687.5663152352906 359.36208428788825 690.7326266904529 354.5326597451659Q693.8669552016237 349.7032352024437 697.2571472647268 341.99534570048286Q700.6153563838383 334.28745619852214 704.5492584947975 323.28532346543295L704.5492584947975 323.28532346543295L708.9309218216383 324.40472650513675Q705.6686615345013 333.0721043268437 702.4064012473644 341.227755044686Q699.1761239042191 349.3514228185368 695.4021365132176 355.7160286728529Q691.628149122216 362.08063452716897 687.1185540194091 365.886604862162Q682.6409418605938 369.72455814114664 676.8840119421168 369.72455814114664L676.8840119421168 369.72455814114664Q669.8157813199869 369.72455814114664 665.8818792090276 365.50280953426363Q661.9479770980683 361.2810609273805 660.0290004585761 353.86101792134366L660.0290004585761 353.86101792134366Q653.5044798843023 363.4239181748136 646.0204709902823 369.08489926131585Q638.5684450402539 374.7778632918097 630.3488284344285 374.7778632918097L630.3488284344285 374.7778632918097Q625.743284499647 374.7778632918097 621.4575700047808 373.0507843162667Q617.2038384539062 371.291722396732 613.9415781667693 367.6456667816967Q610.6793178796324 363.99961116666134 608.632409464174 358.3066471361675Q606.6174839927071 352.61368310567366 606.6174839927071 344.64993005178064L606.6174839927071 344.64993005178064Q606.6174839927071 336.3343646139806 609.2720683440048 328.1147480081553Q611.8946697513109 319.89513140232987 616.7880601820162 313.3386278840645Q621.6814506127216 306.7501414218076 628.5897665148939 302.6563245908907Q635.5300653610577 298.5305248159823 644.1654602387731 298.5305248159823ZM634.2827305453877 368.381274493502L634.2827305453877 368.381274493502Q640.5833705117208 368.381274493502 646.9479763660369 362.8162422389744Q653.2805992763615 357.25120998444675 659.133478026813 348.13607094685824L659.133478026813 348.13607094685824Q658.4618362029908 342.8588851882545 658.2379555950499 336.87807466183676Q658.0140749871092 330.92924707941063 658.0140749871092 324.18084589719604L658.0140749871092 324.18084589719604Q658.0140749871092 319.89513140232987 658.0140749871092 315.7053657394383Q658.0140749871092 311.4836171325553 658.2379555950499 307.54971502159606L658.2379555950499 307.54971502159606Q657.6622626032022 307.1019538057145 656.6068254514814 306.30238020592606Q655.5194053557692 305.5028066061376 653.8882752122007 304.7352159503407Q652.2891280126238 303.93564235055226 650.1782537091823 303.42391524668767Q648.0993623497322 302.94417108681455 645.5407268304092 302.94417108681455L645.5407268304092 302.94417108681455Q641.7027735514246 302.94417108681455 636.8733490087023 305.05504539025605Q632.04392446598 307.19790263768914 627.6942440831308 311.9953442364199Q623.3765466442732 316.7608028911592 620.4660987410432 324.40472650513675Q617.5236678938217 332.0486501191144 617.5236678938217 343.0827657961952L617.5236678938217 343.0827657961952Q617.5236678938217 348.35995155479907 618.7070368215086 352.9654954895806Q619.8904057491955 357.5710394243621 622.0972288846116 360.99321443145664Q624.2720690760361 364.4473723825429 627.3744146432155 366.3983319660267Q630.4447772664031 368.381274493502 634.2827305453877 368.381274493502ZM692.9714327698606 243.1040828786463L692.9714327698606 243.1040828786463Q692.9714327698606 241.40898684709475 692.8115180499029 239.29811254365322Q692.6516033299453 237.15525529622016 692.0759103380975 235.30024454471092Q691.5002173462499 233.44523379320168 690.4447801945291 232.13393308954863Q689.3893430428084 230.85461532988708 687.470366403316 230.85461532988708L687.470366403316 230.85461532988708Q682.8648224685345 230.85461532988708 678.9629033015668 238.49853894386476Q675.0929670785906 246.1424625578424 672.2784680073353 259.5752990342885Q669.4639689360799 273.00813551073463 667.8968046804946 291.1104818099453Q666.3296404249091 309.212828109156 666.3296404249091 330.12967347962217L666.3296404249091 330.12967347962217L666.3296404249091 335.2149615742768Q670.1675937038938 327.66698679227375 673.6217516549799 319.127540746533Q677.1078925500576 310.5880947007922 680.1142892852622 301.9207168790854Q683.0887030764752 293.2533390573784 685.4554409318491 284.71389301163765Q687.7901958432315 276.1744469658969 689.4852918747829 268.46655746393617Q691.1803879063345 260.75866796197545 692.0759103380975 254.23414738770163Q692.9714327698606 247.7096268134278 692.9714327698606 243.1040828786463ZM732.6622662633597 368.1573938855613L732.6622662633597 368.1573938855613Q738.9629062296927 368.1573938855613 744.7518190921612 363.5198670067882Q750.5407319546297 358.9143230720067 753.8029922417666 350.15099641832524L753.8029922417666 350.15099641832524L752.9074698100035 350.15099641832524Q745.935188019848 350.15099641832524 740.0183433814136 347.7842585629513Q734.1334816869705 345.4175207075775 729.8157842481128 341.227755044686Q725.4661038652636 337.00600643780297 723.0034171779151 331.0891617993683Q720.5407304905667 325.2043001049252 720.5407304905667 318.1040865388037L720.5407304905667 318.1040865388037Q720.5407304905667 314.17018442784456 721.5961676422875 310.1403334849107Q722.6516047940082 306.07849959798534 724.9223938174075 302.8802051988315Q727.1611998968151 299.68191079967767 730.7432896238674 297.6350023842192Q734.3573622949112 295.6200769127523 739.3147186135998 295.6200769127523L739.3147186135998 295.6200769127523Q743.3445695565335 295.6200769127523 747.2784716674928 297.2512070563207Q751.212373778452 298.8823371998892 754.3786852336143 302.81623931084846Q757.513013744785 306.7501414218076 759.4959562722604 313.43457671603915Q761.4469158557442 320.1190120102707 761.4469158557442 330.3535540875629L761.4469158557442 330.3535540875629Q761.4469158557442 334.1915073665475 761.1270864158289 337.9654947575491Q760.775274031922 341.7074992045591 759.8797516001589 345.3215718756029L759.8797516001589 345.3215718756029Q764.2614149269996 344.52199827581444 767.6835899340942 342.50707280434756Q771.1377478851804 340.49214733288056 773.7603492924866 337.6136823736422Q776.4149336437841 334.7352174144037 778.4298591152511 331.0891617993683Q780.444784586718 327.4431061843329 782.1398806182696 323.28532346543295L782.1398806182696 323.28532346543295L786.5215439451104 324.40472650513675Q784.1548060897364 330.8013153034444 781.0844434665488 335.3109104062514Q777.9820978993696 339.8205055090583 774.4319911163088 342.8588851882545Q770.9138672772397 345.86528192345907 767.011948110272 347.49641206702745Q763.1420118872958 349.12754221059595 758.9842291683958 349.7032352024437L758.9842291683958 349.7032352024437Q757.4170649128105 355.2043015689883 754.8264464494957 360.0337261117105Q752.2358279861812 364.8951335984243 748.5258064831628 368.47722332547664Q744.8157849801444 372.09129599652044 739.9223945494389 374.1701873559705Q735.0290041187336 376.2490787154205 728.9522447603413 376.2490787154205L728.9522447603413 376.2490787154205Q723.8989396096782 376.2490787154205 718.781668571032 374.1701873559705Q713.6643975323859 372.09129599652044 709.570580701469 367.74161561367123Q705.4447809265605 363.4239181748136 702.918128351229 356.83543171255667Q700.3914757758976 350.2789281942913 700.3914757758976 341.16378915670293L700.3914757758976 341.16378915670293Q700.3914757758976 335.2149615742768 701.7987253115252 329.4580316557999Q703.2059748471529 323.7330846813145 705.7326274224845 318.6158136426684Q708.259279997816 313.4985426040222 711.7454208928937 309.05291338919835Q715.2315617879713 304.6072841743745 719.2933956748967 301.34502388723763L719.2933956748967 301.34502388723763L720.9884917064483 304.15952295849297Q718.3978732431336 306.5262608138669 716.0311353877598 310.0124017089445Q713.6643975323859 313.4985426040222 711.7454208928937 317.7202912109053Q709.8584271973929 321.9420398177883 708.7070412136975 326.611549640553Q707.5876381739937 331.24907651932597 707.5876381739937 335.88660339809906L707.5876381739937 335.88660339809906Q707.5876381739937 344.969759491696 709.8904101413843 351.1744506260544Q712.1931821087752 357.34715881642126 715.807254779819 361.12114620742284Q719.3893445068713 364.8951335984243 723.8989396096782 366.5262637419928Q728.4085347124851 368.1573938855613 732.6622662633597 368.1573938855613ZM739.090838005659 300.001740239593L739.090838005659 300.001740239593Q736.0524583264628 300.001740239593 733.4618398631482 301.31304094324605Q730.8712213998335 302.59235870290763 728.9522447603413 304.83116478231534Q727.033268120849 307.1019538057145 725.9138650811451 310.2362823168853Q724.7944620414413 313.3706108280561 724.7944620414413 317.2085641070406L724.7944620414413 317.2085641070406Q724.7944620414413 323.8290335132891 727.033268120849 329.13820221588446Q729.3040571442482 334.41538797448834 733.1739933672243 338.12540947750676Q737.0439295902005 341.8354309805252 742.2251665168297 343.786390564009Q747.4064034434589 345.76933309148444 753.355231025885 345.76933309148444L753.355231025885 345.76933309148444L755.4980882733181 345.76933309148444Q756.3936107050812 342.28319219640673 756.7454230889881 338.4452389174221Q757.0652525289036 334.63926858242905 757.0652525289036 330.12967347962217L757.0652525289036 330.12967347962217Q756.8413719209627 321.4942786019068 755.3381735533604 315.7053657394383Q753.8029922417666 309.8844699329784 751.4362543863928 306.43031198189226Q749.069516531019 302.94417108681455 745.8712221318651 301.47295566320383Q742.6729277327113 300.001740239593 739.090838005659 300.001740239593Z " fill="#ffe67c" transform="matrix(1.1124933456823025,0,0,1.1124933456823025,0,-35.137612335483425)"/></g></svg>